<mxfile host="app.diagrams.net" modified="2023-03-14T14:21:53.652Z" agent="5.0 (Windows NT 10.0; Win64; x64) AppleWebKit/537.36 (KHTML, like Gecko) Chrome/111.0.0.0 Safari/537.36" etag="XMa7A-tppiI0h8cJUYOd" version="21.0.6" type="github">
  <diagram name="Page-1" id="ERA9clVWiJN9jm6EAOTU">
    <mxGraphModel dx="1050" dy="549" grid="1" gridSize="10" guides="1" tooltips="1" connect="1" arrows="1" fold="1" page="1" pageScale="1" pageWidth="850" pageHeight="1100" math="0" shadow="0">
      <root>
        <mxCell id="0" />
        <mxCell id="1" parent="0" />
        <mxCell id="GEdyw78trVJxSbKYEeHb-1" value="" style="rounded=0;whiteSpace=wrap;html=1;" vertex="1" parent="1">
          <mxGeometry x="180" y="110" width="320" height="230" as="geometry" />
        </mxCell>
        <mxCell id="GEdyw78trVJxSbKYEeHb-2" value="Register visit" style="rounded=1;fillColor=#0057D8;align=center;strokeColor=none;html=1;whiteSpace=wrap;fontColor=#ffffff;fontSize=12;sketch=0;" vertex="1" parent="1">
          <mxGeometry x="200" y="140" width="280" height="30" as="geometry" />
        </mxCell>
        <mxCell id="GEdyw78trVJxSbKYEeHb-12" value="Rating" style="rounded=1;fillColor=#0057D8;align=center;strokeColor=none;html=1;whiteSpace=wrap;fontColor=#ffffff;fontSize=12;sketch=0;" vertex="1" parent="1">
          <mxGeometry x="200" y="210" width="280" height="30" as="geometry" />
        </mxCell>
        <mxCell id="GEdyw78trVJxSbKYEeHb-13" value="Feedback" style="rounded=1;fillColor=#0057D8;align=center;strokeColor=none;html=1;whiteSpace=wrap;fontColor=#ffffff;fontSize=12;sketch=0;" vertex="1" parent="1">
          <mxGeometry x="200" y="280" width="280" height="30" as="geometry" />
        </mxCell>
        <mxCell id="GEdyw78trVJxSbKYEeHb-14" value="" style="rounded=0;whiteSpace=wrap;html=1;" vertex="1" parent="1">
          <mxGeometry x="570" y="110" width="310" height="230" as="geometry" />
        </mxCell>
        <mxCell id="GEdyw78trVJxSbKYEeHb-15" value="Name" style="html=1;shadow=0;dashed=0;shape=mxgraph.bootstrap.rrect;rSize=5;strokeColor=#CED4DA;strokeWidth=1;fillColor=#E9ECEF;fontColor=#505050;whiteSpace=wrap;align=left;verticalAlign=middle;spacingLeft=10;fontSize=14;" vertex="1" parent="1">
          <mxGeometry x="580" y="130" width="290" height="30" as="geometry" />
        </mxCell>
        <mxCell id="GEdyw78trVJxSbKYEeHb-16" value="ID card" style="html=1;shadow=0;dashed=0;shape=mxgraph.bootstrap.rrect;rSize=5;strokeColor=#CED4DA;strokeWidth=1;fillColor=#E9ECEF;fontColor=#505050;whiteSpace=wrap;align=left;verticalAlign=middle;spacingLeft=10;fontSize=14;" vertex="1" parent="1">
          <mxGeometry x="580" y="170" width="290" height="30" as="geometry" />
        </mxCell>
        <mxCell id="GEdyw78trVJxSbKYEeHb-17" value="Visit time" style="html=1;shadow=0;dashed=0;shape=mxgraph.bootstrap.rrect;rSize=5;strokeColor=#CED4DA;strokeWidth=1;fillColor=#E9ECEF;fontColor=#505050;whiteSpace=wrap;align=left;verticalAlign=middle;spacingLeft=10;fontSize=14;" vertex="1" parent="1">
          <mxGeometry x="580" y="210" width="290" height="30" as="geometry" />
        </mxCell>
        <mxCell id="GEdyw78trVJxSbKYEeHb-18" value="Register" style="rounded=1;fillColor=#0057D8;align=center;strokeColor=none;html=1;whiteSpace=wrap;fontColor=#ffffff;fontSize=12;sketch=0;" vertex="1" parent="1">
          <mxGeometry x="580" y="290" width="290" height="30" as="geometry" />
        </mxCell>
        <mxCell id="GEdyw78trVJxSbKYEeHb-19" value="Select block" style="html=1;shadow=0;dashed=0;shape=mxgraph.bootstrap.rrect;rSize=5;strokeColor=#CED4DA;strokeWidth=1;fillColor=#E9ECEF;fontColor=#505050;whiteSpace=wrap;align=left;verticalAlign=middle;spacingLeft=10;fontSize=14;" vertex="1" parent="1">
          <mxGeometry x="580" y="250" width="290" height="30" as="geometry" />
        </mxCell>
        <mxCell id="GEdyw78trVJxSbKYEeHb-20" value="" style="shape=image;html=1;verticalAlign=top;verticalLabelPosition=bottom;labelBackgroundColor=#ffffff;imageAspect=0;aspect=fixed;image=https://cdn2.iconfinder.com/data/icons/navigation-set-arrows-part-two/32/Arrow_Drop_Down_Circle-128.png" vertex="1" parent="1">
          <mxGeometry x="840" y="253" width="24" height="24" as="geometry" />
        </mxCell>
        <mxCell id="GEdyw78trVJxSbKYEeHb-21" value="" style="rounded=0;whiteSpace=wrap;html=1;" vertex="1" parent="1">
          <mxGeometry x="180" y="360" width="310" height="230" as="geometry" />
        </mxCell>
        <mxCell id="GEdyw78trVJxSbKYEeHb-23" value="" style="shape=image;html=1;verticalAlign=top;verticalLabelPosition=bottom;labelBackgroundColor=#ffffff;imageAspect=0;aspect=fixed;image=https://cdn1.iconfinder.com/data/icons/unicons-line-vol-5/24/sad-128.png" vertex="1" parent="1">
          <mxGeometry x="340" y="435" width="70" height="70" as="geometry" />
        </mxCell>
        <mxCell id="GEdyw78trVJxSbKYEeHb-24" value="" style="shape=image;html=1;verticalAlign=top;verticalLabelPosition=bottom;labelBackgroundColor=#ffffff;imageAspect=0;aspect=fixed;image=https://cdn1.iconfinder.com/data/icons/unicons-line-vol-1/24/angry-128.png" vertex="1" parent="1">
          <mxGeometry x="190" y="435" width="70" height="70" as="geometry" />
        </mxCell>
        <mxCell id="GEdyw78trVJxSbKYEeHb-25" value="" style="shape=image;html=1;verticalAlign=top;verticalLabelPosition=bottom;labelBackgroundColor=#ffffff;imageAspect=0;aspect=fixed;image=https://cdn1.iconfinder.com/data/icons/unicons-line-vol-5/24/smile-beam-128.png" vertex="1" parent="1">
          <mxGeometry x="410" y="435" width="70" height="70" as="geometry" />
        </mxCell>
        <mxCell id="GEdyw78trVJxSbKYEeHb-26" value="" style="shape=image;html=1;verticalAlign=top;verticalLabelPosition=bottom;labelBackgroundColor=#ffffff;imageAspect=0;aspect=fixed;image=https://cdn1.iconfinder.com/data/icons/unicons-line-vol-5/24/sad-dizzy-128.png" vertex="1" parent="1">
          <mxGeometry x="260" y="435" width="70" height="70" as="geometry" />
        </mxCell>
        <mxCell id="GEdyw78trVJxSbKYEeHb-27" value="" style="shape=image;html=1;verticalAlign=top;verticalLabelPosition=bottom;labelBackgroundColor=#ffffff;imageAspect=0;aspect=fixed;image=https://cdn3.iconfinder.com/data/icons/essential-pack/32/34-Happy_and_Smile-128.png" vertex="1" parent="1">
          <mxGeometry x="1000" y="660" width="128" height="128" as="geometry" />
        </mxCell>
        <mxCell id="GEdyw78trVJxSbKYEeHb-29" value="Please rate the service level" style="text;html=1;strokeColor=none;fillColor=none;align=center;verticalAlign=middle;whiteSpace=wrap;rounded=0;fontFamily=Helvetica;labelBackgroundColor=default;fontColor=#4D9900;fontSize=20;" vertex="1" parent="1">
          <mxGeometry x="190" y="410" width="290" height="30" as="geometry" />
        </mxCell>
      </root>
    </mxGraphModel>
  </diagram>
</mxfile>
